<svg xmlns="http://www.w3.org/2000/svg" width="208" height="34" fill="none"><path fill="#fff" fill-rule="evenodd" d="M17.13 30.452c-7.239 0-13.418-6.565-13.418-13.727 0-7.134 6.05-13.83 13.366-13.83 4.809 0 8.272 2.326 11.09 5.972h3.542c-1.06-1.914-2.198-3.671-3.93-5.042C24.808 1.421 20.956 0 17.13 0 7.952 0 .482 7.575.482 16.7c0 9.15 7.574 16.648 16.7 16.648 3.722 0 7.368-1.37 10.289-3.67 1.836-1.474 3.128-3.387 4.37-5.352h-3.542c-2.793 3.645-6.36 6.126-11.17 6.126Zm36.71-17.45c-2.224-2.869-5.249-4.678-8.997-4.678-6.721 0-12.253 5.456-12.253 12.177 0 6.72 5.558 12.227 12.253 12.227 3.904 0 6.617-1.63 8.996-4.628v4.084h2.921V8.892h-2.92v4.11ZM44.687 30.04c-5.145 0-9.204-4.472-9.204-9.512 0-5.016 4.034-9.514 9.204-9.514 5.144 0 9.151 4.499 9.151 9.514 0 5.04-4.033 9.512-9.15 9.512Zm15.614 2.145h3.129V.671H60.3v31.513Zm14.942-3.697-7.91-19.595H64.23l9.488 23.292h3.154l9.462-23.292h-3.05l-8.04 19.595Zm12.383 3.697h3.128V8.892h-3.128v23.292Zm0-26.29h3.128V.67h-3.128v5.222Zm16.597 2.429c-2.947 0-5.04 1.552-6.98 3.62v-3.05H94.35v23.291h3.075V17.991c-.025-3.748 3.077-6.979 6.851-6.979 4.73 0 7.108 4.11 7.108 8.35v12.823h2.895V19.363c.001-6.05-3.539-11.04-10.054-11.04ZM143.311.67l-14.218 18.07V.671h-3.076v31.513h3.076v-8.66l4.033-5.015 10.263 13.675h3.905L135.09 16.027 147.294.67h-3.983Zm5.119 31.513h3.052V.671h-3.052v31.513Zm28.308-17.424c-2.12-3.956-6.36-6.437-10.833-6.437-6.669 0-12.306 5.559-12.306 12.228 0 6.72 5.688 12.176 12.36 12.176 3.178 0 6.308-1.267 8.607-3.464 1.397-1.319 2.224-2.973 2.972-4.705h-3.282c-1.655 3.232-4.577 5.48-8.352 5.48-2.299 0-4.549-.931-6.254-2.508-1.76-1.602-2.535-3.568-2.872-5.894h21.485c.001-2.43-.336-4.756-1.525-6.876Zm-19.855 4.188c.933-4.368 4.369-7.936 9.076-7.936 3.955 0 8.195 2.43 9.125 7.936h-18.201Zm23.656 13.236h3.075V8.892h-3.075v23.292Zm0-26.187h3.075V.671h-3.075v5.326Zm16.597 2.326c-3.001 0-5.094 1.552-7.059 3.62v-3.05h-2.947v23.291h3.102V17.991c-.025-3.774 3.155-6.979 6.954-6.979 4.706 0 7.189 4.11 7.189 8.35v12.823h2.895V19.363c0-6.05-3.595-11.04-10.134-11.04Z" clip-rule="evenodd"/></svg>