<svg xmlns="http://www.w3.org/2000/svg" width="157" height="36" fill="none"><g clip-path="url(#a)"><path fill="#fff" d="m141.794 11.293-.292.093c-1.133-2.344-2.753-4.21-4.858-5.597-2.073-1.388-4.68-2.081-7.822-2.081a12.13 12.13 0 0 0-5.004 1.063 12.435 12.435 0 0 0-4.178 2.914c-1.166 1.234-2.106 2.73-2.818 4.487-.713 1.757-1.069 3.7-1.069 5.828 0 2.127.356 4.07 1.069 5.828.712 1.757 1.652 3.268 2.818 4.532a12.757 12.757 0 0 0 4.178 2.868 12.601 12.601 0 0 0 5.004 1.017c3.109 0 5.636-.462 7.579-1.387 1.976-.956 3.644-2.405 5.004-4.348l.292.092-.097 2.96a13.574 13.574 0 0 1-2.575 1.99 19.367 19.367 0 0 1-3.158 1.433c-1.101.37-2.251.648-3.449.833a20.23 20.23 0 0 1-3.596.324c-2.494 0-4.874-.386-7.141-1.157-2.268-.77-4.26-1.85-5.976-3.237a15.864 15.864 0 0 1-4.081-5.088c-1.004-2.004-1.507-4.224-1.507-6.66s.503-4.641 1.507-6.614a15.71 15.71 0 0 1 4.081-5.135c1.716-1.418 3.708-2.497 5.976-3.237 2.267-.771 4.647-1.157 7.141-1.157 1.199 0 2.397.093 3.596.278 1.198.185 2.348.478 3.449.879 1.134.37 2.186.848 3.158 1.434.972.555 1.83 1.202 2.575 1.942l.194 4.903Zm-107.06 8.835a4.866 4.866 0 0 0-1.02.601c-.325.247-.487.586-.487 1.018v5.689c-1.554 2.128-3.546 3.777-5.975 4.949-2.43 1.172-5.118 1.758-8.066 1.758-2.494 0-4.874-.386-7.141-1.157-2.268-.77-4.26-1.85-5.976-3.237a15.87 15.87 0 0 1-4.081-5.088C.984 22.657.482 20.436.482 18c0-2.437.502-4.641 1.506-6.615a15.717 15.717 0 0 1 4.08-5.134c1.717-1.418 3.71-2.497 5.977-3.238 2.267-.77 4.647-1.156 7.141-1.156 1.199 0 2.397.093 3.596.278 1.198.185 2.348.478 3.45.878 1.133.37 2.186.848 3.157 1.434.972.555 1.83 1.203 2.575 1.943l.195 4.903-.292.092c-1.133-2.344-2.753-4.21-4.858-5.597-2.073-1.387-4.68-2.081-7.822-2.081a12.13 12.13 0 0 0-5.004 1.064 12.438 12.438 0 0 0-4.178 2.914c-1.167 1.233-2.106 2.729-2.818 4.486-.713 1.758-1.07 3.7-1.07 5.828 0 2.097.34 4.024 1.021 5.782.713 1.757 1.652 3.268 2.818 4.532a13.381 13.381 0 0 0 4.178 2.914 12.72 12.72 0 0 0 5.053 1.018c3.368 0 6.251-.617 8.648-1.85v-8.65c0-.431-.178-.77-.534-1.017a5.596 5.596 0 0 0-.972-.602l.044-.23c.162.027.454.058.875.091l1.312.093h4.178c.389-.029.761-.06 1.118-.093.356-.028.63-.058.825-.092l.053.232Zm35.19-17.299a5.496 5.496 0 0 0-.972.602c-.324.246-.502.709-.534 1.387-.03.74-.062 1.68-.097 2.822 0 1.11-.015 2.374-.044 3.792 0 1.419-.015 2.96-.045 4.626v5.18c-.03 2.004-.289 3.716-.778 5.134-.485 1.419-1.133 2.606-1.943 3.561-.777.957-1.652 1.712-2.623 2.267a12.52 12.52 0 0 1-2.818 1.249c-.907.308-1.766.493-2.575.555-.81.092-1.441.139-1.895.139-1.846 0-3.628-.232-5.344-.694-1.717-.432-3.223-1.14-4.519-2.128-1.295-.987-2.331-2.266-3.109-3.839-.777-1.572-1.166-3.484-1.166-5.735V11.71c0-1.48-.015-2.806-.044-3.978a76.14 76.14 0 0 0-.045-2.914c-.03-.678-.207-1.14-.534-1.387a5.593 5.593 0 0 0-.972-.602l.045-.23c.162.027.42.058.778.091.388.028.777.06 1.166.092.42 0 .826.015 1.214.043h1.75c.388-.028.793-.043 1.214-.043.421-.028.81-.058 1.166-.092.388-.028.664-.059.825-.092l.045.231a4.864 4.864 0 0 0-1.02.602c-.292.246-.454.709-.487 1.387-.03.74-.062 1.712-.096 2.914v14.015c0 3.36.825 5.843 2.477 7.447 1.652 1.603 4.098 2.405 7.337 2.405.939 0 2.008-.108 3.206-.324a8.752 8.752 0 0 0 3.352-1.48c1.07-.74 1.96-1.789 2.672-3.146.746-1.357 1.118-3.16 1.118-5.411 0-2.436-.015-4.518-.044-6.244 0-1.758-.015-3.253-.045-4.487 0-1.264-.015-2.343-.044-3.238-.03-.894-.062-1.711-.097-2.451-.03-.678-.208-1.141-.534-1.388a5.594 5.594 0 0 0-.972-.601l.044-.231c.356.061.761.123 1.215.185.453.028.874.042 1.263.042.356 0 .761-.014 1.215-.042.486-.061.907-.123 1.263-.185l.03.231Zm35.254 8.464-.292.093c-1.133-2.344-2.753-4.21-4.858-5.597-2.073-1.388-4.68-2.081-7.822-2.081-1.75 0-3.417.354-5.004 1.063a12.439 12.439 0 0 0-4.178 2.914c-1.166 1.234-2.106 2.73-2.818 4.487-.713 1.757-1.07 3.7-1.07 5.828 0 2.127.357 4.07 1.07 5.828.712 1.757 1.652 3.268 2.817 4.532a12.761 12.761 0 0 0 4.179 2.868 12.603 12.603 0 0 0 5.004 1.017c3.11 0 5.636-.462 7.579-1.387 1.976-.956 3.644-2.405 5.004-4.348l.292.092-.097 2.96a13.606 13.606 0 0 1-2.575 1.99 19.41 19.41 0 0 1-3.158 1.433c-1.101.37-2.251.648-3.45.833a20.23 20.23 0 0 1-3.595.324c-2.494 0-4.874-.386-7.142-1.157-2.267-.77-4.259-1.85-5.975-3.237a15.868 15.868 0 0 1-4.082-5.088c-1.004-2.004-1.506-4.224-1.506-6.66s.502-4.641 1.506-6.614a15.715 15.715 0 0 1 4.081-5.135c1.717-1.418 3.709-2.497 5.976-3.237 2.268-.771 4.648-1.157 7.142-1.157 1.198 0 2.397.093 3.595.278 1.199.185 2.349.478 3.45.879 1.133.37 2.186.848 3.158 1.434a12.27 12.27 0 0 1 2.575 1.942l.194 4.903Zm51.259 22.063a10.942 10.942 0 0 0-.825-.092c-.356 0-.745-.014-1.166-.043-.422 0-.827-.014-1.215-.042h-2.915c-.388.028-.777.06-1.166.092a9.806 9.806 0 0 0-.825.093l-.045-.186c.324-.154.648-.354.972-.601.324-.247.502-.71.534-1.388.03-.74.044-1.51.044-2.313.03-.801.045-1.711.045-2.729V9.82c0-1.017-.015-1.912-.045-2.682 0-.802-.014-1.573-.044-2.313-.03-.678-.208-1.141-.534-1.388a4.434 4.434 0 0 0-.972-.647l.045-.185c.194.061.469.108.825.139.389 0 .778.014 1.166.042.421.028.826.042 1.215.042h1.7a16.81 16.81 0 0 1 1.215-.042c.421-.028.81-.06 1.166-.092.388-.029.663-.06.825-.093l.045.186c-.356.154-.696.37-1.021.647-.291.247-.453.71-.486 1.388-.029.74-.062 1.51-.097 2.312v21.74c.03.8.062 1.572.097 2.312.03.678.192 1.14.486 1.387.325.247.665.447 1.021.602l-.045.181Z"/></g><defs><clipPath id="a"><path fill="#fff" d="M.482 0h156v36h-156z"/></clipPath></defs></svg>