<svg width="194" height="32" viewBox="0 0 194 32" fill="none" xmlns="http://www.w3.org/2000/svg">
<g clip-path="url(#clip0_22_367)">
<path fill-rule="evenodd" clip-rule="evenodd" d="M0 0.90175L2.93217 4.20848V28.4106L0.758974 31.5774L14.0684 31.5978L11.6695 28.6839L11.4204 19.9679L24.2536 20.0375C28.1434 18.7425 32.1421 15.9815 32.3342 10.3996C32.2728 4.99032 28.9703 1.52086 25.136 0.830605L0 0.90175ZM10.9449 2.44953V17.9977L20.7911 18.0689C23.0315 16.2623 24.7298 14.8787 24.6619 10.5411C24.6298 7.00433 23.8832 3.92011 20.5873 2.45029L10.9449 2.44953ZM38.4936 0.725402L41.4258 4.03289V28.2351L39.2526 31.4033L52.5613 31.4222L50.1624 28.5083L49.9133 19.7923H49.9666L63.7165 31.5206L75.1274 31.4275L64.7129 22.4193H56.0187L52.9543 19.8089L62.7465 19.8619C66.6363 18.5669 70.6342 15.8059 70.8271 10.224C70.7665 4.81548 67.4639 1.34527 63.6289 0.65577L38.4936 0.725402ZM49.4378 2.27318V17.8214L59.284 17.8925C61.5251 16.0859 63.2227 14.7024 63.1548 10.364C63.1227 6.82798 62.3761 3.74301 59.0802 2.27318H49.4378ZM86.1132 0.690586H97.5891L112.528 28.4106C113.174 30.551 115.108 30.2869 116.398 31.2254H101.935L104.108 30.5457L103.972 28.4818L100.237 22.5011L87.5391 22.5722L84.8232 28.3418C84.7326 28.998 84.0306 29.496 84.5514 30.3111L85.5705 31.2958L79.3234 31.155L82.04 30.3111L92.2924 8.71181V7.23365L87.9606 1.45502L86.1132 0.690586ZM88.3419 20.5976L93.616 10.6123L99.1071 20.5416L88.3419 20.5976ZM163.715 0.751135H175.19L190.129 28.4712C190.776 30.6116 192.709 30.3475 194 31.286H179.536L181.709 30.6048L181.573 28.5408L177.839 22.5616L165.141 22.6328L162.425 28.4008C162.333 29.0585 161.632 29.5565 162.152 30.3717L163.171 31.3563L156.925 31.2156L159.642 30.3717L169.894 8.77235V7.29345L165.562 1.51557L163.715 0.751135ZM165.944 20.6589L171.218 10.6736L176.709 20.6013L165.944 20.6589ZM120.367 0.402222L140.81 0.514994C147.394 2.05672 151.582 6.07868 152.881 13.0948L152.826 18.5669C151.626 24.8186 147.693 29.1319 140.756 31.3155L120.258 31.373L120.255 30.7107C123.372 30.4754 123.621 30.1196 123.629 28.2699V3.33506C123.594 1.96741 123.32 1.11594 120.312 1.02209L120.367 0.402222ZM131.988 2.53581L131.968 29.5134C134.664 29.5225 137.003 29.7753 138.325 29.1009C141.319 27.7333 142.71 25.633 142.837 23.6598L142.765 7.73016C142.766 5.1818 140 3.38274 138.404 2.91425C137.262 2.49116 134.983 2.47375 131.988 2.53581Z" fill="white" stroke="white" stroke-width="1.02419" stroke-miterlimit="2.613"/>
</g>
<defs>
<clipPath id="clip0_22_367">
<rect width="194" height="32" fill="white"/>
</clipPath>
</defs>
</svg>
