<svg xmlns="http://www.w3.org/2000/svg" width="167" height="34" fill="none"><path fill="#fff" fill-rule="evenodd" d="M150.179.656h16.303v2.597a4.672 4.672 0 0 0-1.469-.242h-9.371v12.138h9.116c.655 0 1.238-.072 1.723-.194v2.586c-.413-.097-.982-.146-1.687-.146h-9.152v12.552h9.091c.499 0 1.093-.073 1.748-.231v2.792h-16.278c.13-.491.196-.997.195-1.505V2.197c0-.63-.073-1.153-.219-1.541Zm-3.774 8.266-4.71-.035c-.231-2.647-1.748-5.21-5.086-5.681-7.15-.644-9.165 7.209-8.983 12.951.183 5.535 1.068 14.044 8.449 14.044 3.096 0 6.069-3.18 5.972-5.863l4.358-.035c-.316 5.535-6.664 8.739-9.687 8.849-10.329.352-14.652-6.531-14.87-16.353C121.654 7.903 125.296 0 135.504 0c8.74.122 10.427 5.293 10.901 8.922ZM72.941 28.89l3.12-2.61c1.626 2.683 2.961 3.909 6.19 3.909 3.278 0 6.034-1.99 6.034-5.51 0-1.737-.705-3.157-2.1-4.225-.632-.498-2.234-1.36-4.76-2.561-3.774-1.808-7.452-4.164-7.452-8.897 0-5.973 5.074-8.607 10.427-8.802C87.568.073 91.5 1.822 93.09 3.787l-3.168 2.44a6.624 6.624 0 0 0-5.826-3.495c-4.043 0-7.247 4.685-3.897 7.914.85.825 2.586 1.845 5.232 3.059 4.224 1.979 7.83 4.345 7.83 9.577a9.565 9.565 0 0 1-1.409 5.038c-1.88 3.107-5.025 4.661-9.42 4.661-5.05 0-6.044-1.153-9.492-4.09ZM28.489.656h16.29v2.597a4.664 4.664 0 0 0-1.469-.242h-9.37v12.138h9.115c.656 0 1.24-.072 1.724-.194v2.586c-.413-.097-.983-.146-1.674-.146H33.94v12.552h9.091a7.59 7.59 0 0 0 1.748-.231v2.792H28.514a6.51 6.51 0 0 0 .182-1.505V2.197c0-.63-.074-1.153-.207-1.541ZM0 .656h5.924v.292c0 .266.084.618.23 1.067l8.35 25.14 8.571-25.25c.134-.424.207-.836.207-1.25h2.877c-.292.51-.51.96-.644 1.36L15.731 31.21c-.097.28-.182.717-.254 1.3H10.62a8.165 8.165 0 0 0-.328-1.3L.704 2.246A49.11 49.11 0 0 0 .011.656H0Zm62.914 16.606c3.885-.765 6.859-3.739 6.859-7.987 0-5.573-4.662-8.62-9.881-8.62H50.35c.133.486.206.996.206 1.53v28.792c0 .62-.073 1.142-.206 1.53h5.68a5.614 5.614 0 0 1-.206-1.53v-13.23l1.82.195 9.518 14.565h5.717l-9.965-15.245Zm-.983-2.428c-1.031.728-2.27 1.092-3.69 1.092h-2.428V2.976h2.173c1.858 0 3.302.46 4.334 1.382 1.408 1.276 2.124 3 2.124 5.16 0 2.33-.838 4.103-2.513 5.317m58.97 16.35L110.293 1.712a3.849 3.849 0 0 1-.207-1.056h-4.589c0 .376-.061.776-.207 1.177L95.01 31.185a5.81 5.81 0 0 1-.644 1.323h2.962c-.012-.486.049-.935.182-1.323l3.046-8.656h11.714l3.011 8.657c.158.472.23.91.23 1.322h6.143c-.353-.498-.607-.947-.753-1.323Zm-19.543-10.998 4.952-14.384 5.087 14.383h-10.039Z" clip-rule="evenodd"/></svg>