<svg xmlns="http://www.w3.org/2000/svg" width="92" height="38" fill="none"><g clip-path="url(#a)"><path fill="#fff" d="M86.814 36.868 73.332.032l-.01-.024h-.265l-2.777 7.57-5.054 13.78-.012-.01c-1.752-1.534-4.223-2.493-7.336-2.85l-.95-.098.943-.12c5.133-.915 8.583-4.132 8.583-8.008 0-5.315-5.037-9.024-12.253-9.024H39.187v.269h4.362V28.98L32.954.032l-.01-.024h-.265l-2.777 7.57-10.708 29.195-.066.008a11.58 11.58 0 0 1-1.349.087H6.96L27.526 1.517l.153-.266H2.525v10.936h.267c.047-5.327 3.173-10.67 10.08-10.67h8.332L.482 37.133h27.917V26.656h-.267c-.036 4.643-2.688 9.052-8.456 10.048l-.183.03 4.392-11.98H36.19l4.434 12.114h-4.374v.265h17.166v-.265h-4.392V18.596h5.068c5.157 0 8.115 2.286 8.115 6.27v3.242c0 .357.025.88.052 1.316v.016l-2.724 7.427h-3.559v.264h7.366v-.264h-3.52l2.48-6.763c.006.065.008.105.008.105l.069.61.066.402c.413 2.494 1.375 4.327 2.855 5.448l.213.154c1.125.776 2.523 1.17 4.157 1.17 2.165 0 3.609-.536 4.8-1.797l-.156-.146c-1.098 1.006-2.02 1.413-3.174 1.413-1.967 0-2.996-2.368-2.996-4.703V28.22a10.127 10.127 0 0 0-.527-3.317l-.049-.14v-.006h9L81 36.87h-4.373v.265h14.855v-.265l-4.668-.002ZM23.984 24.49l6.06-16.525 6.048 16.525H23.983Zm25.041-6.16V1.517h3.869c5.168 0 7.896 3.048 7.896 8.812 0 6.13-1.566 8-6.7 8h-5.065Zm18.437 6.16-.026-.066a8.202 8.202 0 0 0-1.715-2.598l-.254-.252-.027-.025L70.42 7.965l6.047 16.525h-9.004Z"/></g><defs><clipPath id="a"><path fill="#fff" d="M.482 0h91v38h-91z"/></clipPath></defs></svg>